<?xml version="1.0" ?><!-- Uploaded to: SVG Repo, www.svgrepo.com, Generator: SVG Repo Mixer Tools -->
<svg width="800px" height="800px" viewBox="0 0 64 64" id="Layer_1" version="1.1" xml:space="preserve" xmlns="http://www.w3.org/2000/svg" xmlns:xlink="http://www.w3.org/1999/xlink"><style type="text/css">
	.st0{fill:none;stroke:#126BB5;stroke-width:2;stroke-linecap:round;stroke-linejoin:round;stroke-miterlimit:10;}
	.st1{fill:none;stroke:#00B1E4;stroke-width:2;stroke-linecap:round;stroke-linejoin:round;stroke-miterlimit:10;}
	.st2{fill:none;stroke:#00B1E4;stroke-width:2;stroke-linejoin:round;stroke-miterlimit:10;}
	.st3{fill:#FFFFFF;stroke:#00B1E4;stroke-width:2;stroke-linecap:round;stroke-linejoin:round;stroke-miterlimit:10;}
	.st4{fill:#00B1E4;}
	.st5{fill:none;stroke:#126BB5;stroke-width:2;stroke-miterlimit:10;}
	.st6{fill:none;stroke:#00B1E4;stroke-width:2;stroke-miterlimit:10;}
	.st7{fill:none;stroke:#2B3088;stroke-width:2;stroke-linejoin:round;stroke-miterlimit:10;}
	.st8{fill:none;stroke:#126BB5;stroke-width:2;stroke-linecap:round;stroke-miterlimit:10;}
	.st9{fill:none;stroke:#00B1E4;stroke-width:2;stroke-linecap:round;stroke-miterlimit:10;}
</style><path class="st5" d="M40.6,20.6c0,0.7-0.1,1.5-0.3,2.1c-1,3.7-4.3,6.4-8.3,6.4s-7.3-2.7-8.3-6.4c-0.2-0.7-0.3-1.4-0.3-2.1  c0-4.7,3.8-8.6,8.6-8.6S40.6,15.8,40.6,20.6z"/><path class="st6" d="M40.3,22.7c-1,3.7-4.3,6.4-8.3,6.4s-7.3-2.7-8.3-6.4c0.9-3.7,4.3-6.4,8.3-6.4S39.3,19,40.3,22.7z"/><path class="st0" d="M43,52h4.7v-1.4c0-8.7-7-15.7-15.7-15.7h0c-8.7,0-15.7,7-15.7,15.7V52H21"/><rect class="st1" height="8" width="10" x="27" y="44"/><path class="st1" d="M35,44h-6v-2c0-1.7,1.3-3,3-3h0c1.7,0,3,1.3,3,3V44z"/><line class="st1" x1="32" x2="32" y1="48" y2="48"/></svg>